<svg width="394" height="403" viewBox="0 0 394 403" fill="none" xmlns="http://www.w3.org/2000/svg">
<path d="M46.5845 53C53.0845 56.5 53.5845 58 56.5845 56C58.9845 54.4 56.5845 17 56.5845 17C94.5844 17.5 170.984 19 172.585 21V136L332.085 295C333.918 302.5 339.685 317.9 348.085 319.5C346.885 322.7 343.585 325.833 342.085 327H336.585C334.918 330.667 332.085 339.7 334.085 346.5C334.585 355 335.085 363.5 330.585 366.5C330.585 368.9 332.918 370.167 334.085 370.5C337.251 371.833 341.285 375 332.085 377C287.685 381.8 270.251 384 267.085 384.5L247.085 386C247.418 378.167 244.485 360.1 230.085 350.5C225.285 342.9 220.085 339 218.085 338C203.585 329.167 172.085 310.6 162.085 307C154.885 307 150.418 306.333 149.085 306C146.085 304 141.085 298.3 145.085 291.5C147.085 283.5 145.085 276.5 137.085 270C129.885 264.8 124.418 259.5 122.585 257.5C122.585 253.833 120.585 246.1 112.585 244.5C109.785 237.3 108.085 233.833 107.585 233C105.085 229.667 101.985 222.3 109.585 219.5C117.085 214.5 107.918 209.667 107.585 209L101.085 201.5L97.0845 190C94.5845 184.833 91.6845 175.7 100.085 180.5C104.085 182.5 106.418 181.667 107.085 181C108.585 180.5 109.585 177.2 101.585 168C102.785 165.6 104.751 165.667 105.585 166C107.585 164.5 109.585 160.9 101.585 158.5C96.3845 157.7 94.7512 158.167 94.5845 158.5V163L96.0845 168C94.4179 171.167 89.5845 175.4 83.5845 167C78.3845 161.4 76.7512 158.333 76.5845 157.5V154L78.0845 152C78.2512 149.333 76.8845 142.9 70.0845 138.5C67.6845 132.5 66.0845 128.667 65.5845 127.5L60.0845 119.5C59.4179 116.333 58.1845 108.6 58.5845 103C58.9845 97.4 58.0845 94 57.5845 93C55.0845 88.8333 49.0845 79.4 45.0845 75C45.0845 69 45.0845 66.1667 45.0845 65.5C44.9179 61.6667 44.8845 53.8 46.0845 53" stroke="#7E8163" stroke-width="4"/>
<ellipse cx="86.5183" cy="151.71" rx="16.5183" ry="16.7104" fill="#CFD764"/>
<ellipse cx="116.482" cy="151.71" rx="16.5183" ry="16.7104" fill="#CFD764"/>
<path d="M100.924 192.622L72.4971 160.354L76.9148 149.598H130.311L129.351 162.274L100.924 192.622Z" fill="#CFD764"/>
</svg>
