<svg width="141" height="42" viewBox="0 0 141 42" fill="none" xmlns="http://www.w3.org/2000/svg">
<path d="M42.5359 17.8257C41.0782 17.0612 39.9411 15.9919 39.1156 14.6176C38.2902 13.2433 37.8775 11.6835 37.8775 9.93802C37.8775 8.19257 38.2902 6.63271 39.1156 5.25844C39.9411 3.88417 41.0826 2.8148 42.5359 2.05034C43.9892 1.28587 45.6269 0.901428 47.4446 0.901428C49.113 0.901428 50.6014 1.19749 51.9098 1.78962C53.2182 2.38175 54.2983 3.23901 55.15 4.35699L51.4927 7.64021C50.4302 6.29245 49.1789 5.61637 47.7387 5.61637C46.5269 5.61637 45.5566 6.00965 44.819 6.78737C44.0814 7.56951 43.717 8.61678 43.717 9.93361C43.717 11.2504 44.0858 12.3021 44.819 13.0798C45.5566 13.862 46.5269 14.2508 47.7387 14.2508C49.1789 14.2508 50.4302 13.5748 51.4927 12.227L55.15 15.5102C54.2983 16.6282 53.2182 17.4855 51.9098 18.0776C50.6014 18.6697 49.113 18.9658 47.4446 18.9658C45.6269 18.9746 43.9936 18.5902 42.5359 17.8257Z" fill="#1E2A16"/>
<path d="M56.6428 0.256287H62.1881V18.5769H56.6428V0.256287Z" fill="#1E2A16"/>
<path d="M78.8459 13.1241H69.5247C69.7223 13.6322 70.0472 14.0255 70.5082 14.2951C70.9648 14.5646 71.54 14.7016 72.2249 14.7016C72.8133 14.7016 73.3094 14.6265 73.709 14.4807C74.1085 14.3304 74.5476 14.0785 75.0217 13.7162L77.9151 16.6547C76.6067 18.1041 74.6529 18.8288 72.0537 18.8288C70.4336 18.8288 69.011 18.5283 67.7861 17.9274C66.5611 17.3264 65.6084 16.4912 64.941 15.4219C64.2692 14.3525 63.9355 13.1506 63.9355 11.8161C63.9355 10.4683 64.2648 9.25755 64.9278 8.19702C65.5908 7.13649 66.4996 6.31016 67.65 5.71803C68.8047 5.1259 70.0999 4.82983 71.54 4.82983C72.8967 4.82983 74.1348 5.09939 75.2588 5.64291C76.3784 6.18643 77.2697 6.98625 77.9327 8.03794C78.5957 9.08963 78.9249 10.349 78.9249 11.8161C78.9206 11.8956 78.8942 12.3331 78.8459 13.1241ZM70.1614 9.09847C69.7838 9.41221 69.5379 9.8541 69.4238 10.433H73.7397C73.6255 9.87177 73.3797 9.4343 73.0021 9.11173C72.6245 8.78915 72.1503 8.63007 71.5795 8.63007C71.0131 8.63007 70.539 8.78473 70.1614 9.09847Z" fill="#1E2A16"/>
<path d="M95.3545 5.07288L89.9585 18.577H84.22L78.824 5.07288H84.5142L87.2144 12.3066L90.1078 5.07288H95.3545Z" fill="#1E2A16"/>
<path d="M110.05 13.1241H100.729C100.926 13.6322 101.251 14.0255 101.712 14.2951C102.169 14.5646 102.744 14.7016 103.429 14.7016C104.017 14.7016 104.513 14.6265 104.913 14.4807C105.312 14.3304 105.751 14.0785 106.226 13.7162L109.119 16.6547C107.811 18.1041 105.857 18.8288 103.258 18.8288C101.637 18.8288 100.215 18.5283 98.9899 17.9274C97.7649 17.3264 96.8122 16.4912 96.1448 15.4219C95.4731 14.3525 95.1394 13.1506 95.1394 11.8161C95.1394 10.4683 95.4687 9.25755 96.1316 8.19702C96.7946 7.13649 97.7035 6.31016 98.8538 5.71803C100.009 5.1259 101.304 4.82983 102.744 4.82983C104.101 4.82983 105.339 5.09939 106.463 5.64291C107.582 6.18643 108.474 6.98625 109.137 8.03794C109.8 9.08963 110.129 10.349 110.129 11.8161C110.124 11.8956 110.102 12.3331 110.05 13.1241ZM101.365 9.09847C100.988 9.41221 100.742 9.8541 100.628 10.433H104.944C104.829 9.87177 104.584 9.4343 104.206 9.11173C103.828 8.78915 103.354 8.63007 102.783 8.63007C102.217 8.63007 101.743 8.78473 101.365 9.09847Z" fill="#1E2A16"/>
<path d="M121.483 4.82538V9.76126C121.039 9.69497 120.631 9.66404 120.258 9.66404C118.361 9.66404 117.413 10.6362 117.413 12.5761V18.5769H111.867V5.07284H117.141V6.53106C118.124 5.39541 119.568 4.82538 121.483 4.82538Z" fill="#1E2A16"/>
<path d="M55.4924 23.747V41.0292H49.7013V34.6572H44.3535V41.0292H38.5624V23.747H44.3535V29.8716H49.7013V23.747H55.4924Z" fill="#1E2A16"/>
<path d="M69.5247 28.8685C70.7673 29.929 71.3907 31.564 71.3907 33.769V41.0292H66.2406V39.2528C65.6039 40.6006 64.3351 41.2767 62.4383 41.2767C61.3758 41.2767 60.4713 41.0911 59.7293 40.7199C58.9829 40.3487 58.4209 39.8494 58.0346 39.213C57.6526 38.5811 57.4594 37.8697 57.4594 37.0787C57.4594 35.7442 57.9643 34.7323 58.9786 34.043C59.9928 33.3492 61.5295 33.0045 63.5887 33.0045H65.8235C65.6434 31.9528 64.8005 31.4226 63.2945 31.4226C62.6886 31.4226 62.0739 31.5198 61.4548 31.7054C60.8314 31.8954 60.3001 32.1561 59.8611 32.4831L58.096 28.8022C58.8644 28.3249 59.7908 27.9493 60.8797 27.6798C61.9685 27.4102 63.0486 27.2733 64.1287 27.2733C66.482 27.2777 68.2778 27.8079 69.5247 28.8685ZM65.1561 37.6002C65.4678 37.3881 65.6961 37.0655 65.841 36.6368V35.7H64.4668C63.3384 35.7 62.772 36.0801 62.772 36.8357C62.772 37.1494 62.8906 37.4057 63.1276 37.6134C63.3647 37.8211 63.6896 37.9227 64.098 37.9227C64.4931 37.9183 64.8444 37.8123 65.1561 37.6002Z" fill="#1E2A16"/>
<path d="M83.4078 27.2776V32.2135C82.9644 32.1473 82.556 32.1163 82.1828 32.1163C80.2861 32.1163 79.3377 33.0885 79.3377 35.0284V41.0292H73.7924V27.5251H79.0655V28.9833C80.049 27.8477 81.4935 27.2776 83.4078 27.2776Z" fill="#1E2A16"/>
<path d="M100.285 27.5251L94.8891 41.0292H89.1506L83.7546 27.5251H89.4448L92.145 34.7588L95.0384 27.5251H100.285Z" fill="#1E2A16"/>
<path d="M114.98 35.5763H105.659C105.857 36.0845 106.182 36.4778 106.643 36.7473C107.099 37.0169 107.674 37.1539 108.359 37.1539C108.948 37.1539 109.444 37.0788 109.843 36.9329C110.243 36.7827 110.682 36.5308 111.156 36.1685L114.05 39.107C112.741 40.5564 110.787 41.2811 108.188 41.2811C106.568 41.2811 105.145 40.9806 103.921 40.3797C102.696 39.7787 101.743 38.9435 101.075 37.8742C100.404 36.8048 100.07 35.6028 100.07 34.2683C100.07 32.9206 100.399 31.7098 101.062 30.6493C101.725 29.5888 102.634 28.7624 103.784 28.1703C104.939 27.5782 106.234 27.2821 107.674 27.2821C109.031 27.2821 110.269 27.5517 111.393 28.0952C112.513 28.6387 113.404 29.4385 114.067 30.4902C114.73 31.5419 115.059 32.8013 115.059 34.2683C115.055 34.3479 115.033 34.7854 114.98 35.5763ZM106.296 31.5507C105.918 31.8645 105.672 32.3064 105.558 32.8852H109.874C109.76 32.324 109.514 31.8866 109.137 31.564C108.759 31.2414 108.285 31.0823 107.714 31.0823C107.143 31.0823 106.673 31.237 106.296 31.5507Z" fill="#1E2A16"/>
<path d="M118.66 40.9099C117.549 40.6624 116.649 40.3399 115.96 39.9466L117.479 36.2657C118.098 36.6457 118.835 36.9417 119.687 37.1539C120.539 37.366 121.364 37.4764 122.163 37.4764C122.8 37.4764 123.248 37.4234 123.498 37.3173C123.753 37.2113 123.88 37.0522 123.88 36.8357C123.88 36.6236 123.722 36.4733 123.402 36.3894C123.081 36.3054 122.563 36.2259 121.843 36.1419C120.745 36.0094 119.814 35.8414 119.046 35.6338C118.278 35.4261 117.602 35.0284 117.022 34.4362C116.442 33.8441 116.153 32.9957 116.153 31.891C116.153 31.0205 116.416 30.2383 116.939 29.5446C117.461 28.8508 118.243 28.3028 119.283 27.8919C120.324 27.4809 121.566 27.2733 123.024 27.2733C124.038 27.2733 125.03 27.3705 126.005 27.5561C126.98 27.7461 127.81 28.02 128.495 28.3824L126.975 32.0633C125.799 31.4049 124.504 31.0735 123.099 31.0735C121.887 31.0735 121.285 31.2856 121.285 31.7142C121.285 31.9263 121.448 32.081 121.777 32.1694C122.106 32.2622 122.62 32.3461 123.322 32.4301C124.42 32.5626 125.347 32.735 126.106 32.9471C126.866 33.1592 127.537 33.5657 128.117 34.1579C128.697 34.75 128.986 35.5984 128.986 36.7031C128.986 37.5427 128.723 38.3072 128.2 39.0009C127.678 39.6947 126.892 40.2426 125.847 40.6536C124.798 41.0646 123.533 41.2722 122.045 41.2722C120.903 41.2767 119.775 41.1529 118.66 40.9099Z" fill="#1E2A16"/>
<path d="M140.547 40.5608C139.712 41.0381 138.575 41.2767 137.135 41.2767C135.256 41.2767 133.807 40.8215 132.793 39.9068C131.779 38.9921 131.274 37.6223 131.274 35.7929V32.3373H129.434V28.2675H131.274V24.4894H136.819V28.2675H139.568V32.3417H136.819V35.7487C136.819 36.1596 136.924 36.4822 137.14 36.712C137.35 36.9418 137.631 37.0567 137.974 37.0567C138.448 37.0567 138.865 36.9329 139.225 36.6855L140.547 40.5608Z" fill="#1E2A16"/>
<path d="M23.1954 8.60796C23.1954 8.60796 22.8485 8.40469 22.8178 8.38702C20.381 6.64156 17.3428 4.97123 15.5734 0C13.8084 4.97123 10.7525 6.64156 8.31575 8.38702C8.28501 8.40911 7.91621 8.6389 7.91621 8.6389C3.06462 11.573 0 17.1408 0 23.7161C0 33.2785 6.97223 41.0336 15.5778 41.0336C24.1833 41.0336 31.1555 33.2785 31.1555 23.7161C31.1555 17.1762 27.9241 11.7012 23.1954 8.60796ZM15.5778 36.1066C9.5012 36.1066 4.57498 30.5521 4.57498 23.6984C4.57498 16.8447 9.5012 11.2902 15.5778 11.2902C21.6543 11.2902 26.5805 16.8447 26.5805 23.6984C26.5805 30.5521 21.6543 36.1066 15.5778 36.1066Z" fill="#DDD721"/>
</svg>
